<svg xmlns="http://www.w3.org/2000/svg" viewBox="0 0 204.49 70">
  <path d="M125.861 68.914a4.429 4.429 0 01-1.393-3.373 4.617 4.617 0 011.273-3.294 4.8 4.8 0 016.627.08 4.645 4.645 0 01-6.508 6.587zm.317-3.427c0 1.981 1.151 3.185 2.8 3.185s2.785-1.19 2.785-3.185c-.007-1.93-1.107-3.171-2.792-3.171h.007c-1.649-.004-2.8 1.19-2.8 3.17zm34.863 4.38v-8.825h1.62V68.5h3.16v1.367zm-5.411 0l-.869-2.211h-3.149l-.819 2.211H149.2L152.625 61h1.18l3.55 8.864zm-2.745-5.559l-.761 2.049h2.143l-.725-2.049a9.131 9.131 0 01-.335-1.082 6.675 6.675 0 01-.322 1.081zm-8.878 5.559l-3.99-5.169c-.361-.494-.631-.83-.869-1.2h-.029c.029.3.04.765.04 1.18v5.195h-1.62v-8.831h1.649l3.842 4.967a11.438 11.438 0 01.869 1.23h.04c-.029-.386-.029-.894-.029-1.284v-4.913h1.609v8.824zm-25.212 0v-8.825h1.62v8.824zm-8.045 0v-7.472h-2.558v-1.353h6.988l-.375 1.353h-2.413v7.471zm-6.3 0l-.869-2.211h-3.146l-.819 2.211h-1.59L101.453 61h1.176l3.55 8.864zm-2.745-5.559l-.765 2.049h2.143l-.721-2.049a9.933 9.933 0 01-.336-1.082 7.478 7.478 0 01-.32 1.081zm-8.878 5.559L88.838 64.7c-.361-.494-.628-.83-.869-1.2h-.025c.025.3.04.765.04 1.18v5.195h-1.62v-8.833h1.659l3.842 4.967a11.563 11.563 0 01.873 1.23h.025c-.025-.386-.025-.894-.025-1.284v-4.913h1.606v8.824zm-14.314-3.482h-.747v3.481h-1.623v-8.824h2.385c2.291 0 3.146 1.136 3.146 2.489a2.525 2.525 0 01-1.631 2.316c.4.227 1.284 1.753 2.637 4l-1.847.014c-1.367-2.271-1.984-3.372-2.32-3.476zm-.747-1.234h.815a1.443 1.443 0 001.443-1.443c.018-.711-.451-1.3-1.457-1.3h-.8zM67.1 69.866v-8.824h4.913l-.44 1.353h-2.854v2.287h2.853v1.353h-2.853v2.478h3.293v1.353zm-8.012 0v-7.471h-2.559v-1.353h6.963l-.361 1.353h-2.41v7.471zm-7.861 0L47.258 64.7c-.361-.494-.628-.83-.869-1.2h-.025c.025.3.04.765.04 1.18v5.195h-1.62v-8.833h1.645l3.842 4.967a11.563 11.563 0 01.873 1.23h.025c-.025-.386-.025-.894-.025-1.284v-4.913h1.606v8.824zm-12.547 0v-8.824h1.62v8.824zm63.72-25.588c-37.359 0-78.535 6.937-102.4 16.194 23.863-11.98 65.054-20.956 102.4-20.956s78.417 8.984 102.09 20.96c-23.655-9.257-64.733-16.198-102.09-16.198zm1.553-15.778c-8.7 0-14.069-6.133-14.069-14.015C89.884 6.2 96.089 0 105.378 0a23.668 23.668 0 018.189 1.443l-.083 4.773a16.47 16.47 0 00-7.608-1.981c-7.3 0-10.426 4.473-10.426 9.838 0 5.826 3.672 10.216 9.74 10.216a12.912 12.912 0 003.459-.422 9.322 9.322 0 003.29-1.594h-2.349v-8.211h5.126V25.88a22.68 22.68 0 01-10.574 2.62zm32.922-.419V4.52h-8.063V.256h22.038l-1.223 4.264h-10.22l2.619 1.533v22.024zm-62.961 0l-2.745-6.966H58.582l2.186 1.285-2.1 5.682h-5.025L64.466.13h3.716l11.182 27.947zm-8.7-17.6l-2.404 6.453h6.753l-2.237-6.378A30.039 30.039 0 0166.269 7.1h-.04a22.183 22.183 0 01-1.013 3.373z" fill="#003da5"/>
</svg>